<svg xmlns="http://www.w3.org/2000/svg" width="58" height="133.887" viewBox="0 0 58 133.887"><defs><style>.a{fill:#00b6de;}.b{fill:#80c342;}.c{fill:#f3672a;}.d{fill:#4d216c;}.e{fill:rgba(0,0,0,0.54);}</style></defs><g transform="translate(18206 15365.887)"><g transform="translate(-19169 -15460)"><rect class="a" width="14" height="6" transform="translate(963 222)"/><rect class="b" width="15" height="6" transform="translate(977 222)"/><rect class="c" width="14" height="6" transform="translate(992 222)"/><rect class="d" width="15" height="6" transform="translate(1006 222)"/></g><g transform="translate(-18348.594 -14683.693) rotate(-90)"><path class="e" d="M628.927,166.74h-1.14a.449.449,0,0,0-.455.442v5.6c0,1.648-1.044,2.184-2.591,2.184h-.412c-1.527,0-2.588-.558-2.588-2.184v-5.6a.449.449,0,0,0-.453-.442h-1.145a.451.451,0,0,0-.469.442v5.65c0,2.658,1.582,4.062,4.576,4.062h.57c3,0,4.579-1.4,4.579-4.062v-5.65A.451.451,0,0,0,628.927,166.74Z" transform="translate(-17.713 -0.195)"/><path class="e" d="M666.3,166.737h-9.385a.439.439,0,0,0-.451.448v.945a.438.438,0,0,0,.451.445h3.7v7.953a.443.443,0,0,0,.454.431H662.2a.444.444,0,0,0,.455-.431v-7.953H666.3a.441.441,0,0,0,.455-.445v-.945A.441.441,0,0,0,666.3,166.737Z" transform="translate(-38.367 -0.194)"/><path class="e" d="M684.952,166.392h-1.087a.449.449,0,0,0-.455.452V176.3a.446.446,0,0,0,.455.436h1.087a.467.467,0,0,0,.472-.451v-9.443A.457.457,0,0,0,684.952,166.392Z" transform="translate(-53.49 0)"/><path class="e" d="M740.643,170.661c-1.572-.355-2.654-.43-2.654-1.379,0-.543.018-1.152,1.489-1.152h2.067c1.063,0,1.638.422,1.643.959.006.434.386.484.713.484h.812c.237,0,.463-.142.463-.714a2.51,2.51,0,0,0-1.988-2.184,4.691,4.691,0,0,0-1.44-.232H740c-3.65,0-4.118,1.566-4.118,2.93,0,2.212,2.424,2.532,4.48,3,1.578.36,2.823.644,2.823,1.594,0,.428-.188.977-1.451.977h-2.406c-1.438,0-1.69-.107-1.759-.769a.567.567,0,0,0-.63-.566h-.818c-.005,0-.459.008-.459.578a2.683,2.683,0,0,0,2.914,2.551h2.6c3.651,0,4.118-1.565,4.118-2.927C745.294,171.578,742.706,171.127,740.643,170.661Z" transform="translate(-82.821 -0.029)"/><path class="e" d="M792.273,168.231H789.2c-1.527,0-2.3.569-2.3,2.225v5.837a.452.452,0,0,1-.454.449H785.4a.455.455,0,0,1-.469-.449v-5.758c0-2.707,1.194-4.135,4.189-4.135h3.151a.4.4,0,0,1,.4.4v1.02A.4.4,0,0,1,792.273,168.231Z" transform="translate(-110.475 -0.005)"/><path class="e" d="M652.248,175.132h-3.28c-1.565,0-1.618-.441-1.618-2.214v-5.8a.451.451,0,0,0-.454-.448h-1.069a.453.453,0,0,0-.468.448v7.253c0,1.7.991,2.582,3.353,2.582h3.536a.4.4,0,0,0,.4-.4v-1.013A.4.4,0,0,0,652.248,175.132Z" transform="translate(-32.131 -0.155)"/><path class="e" d="M698.243,174.916h-3.278c-1.567,0-1.62-.443-1.62-2.229v-5.843a.453.453,0,0,0-.453-.451h-1.069a.456.456,0,0,0-.469.451v7.305c0,1.709.991,2.6,3.353,2.6h3.536v0h0a.4.4,0,0,0,.4-.4v-1.022A.4.4,0,0,0,698.243,174.916Z" transform="translate(-57.948 0)"/><path class="e" d="M716.533,166.55v0h-1.163v0c-2.433.049-4.068,1.442-4.068,3.446v6.412c0,.43.248.43.329.43h1.221c.351,0,.458-.1.458-.445v-2.659h5.224v2.659c0,.342.108.445.458.445h1.232c.082,0,.328,0,.328-.43V170C720.549,167.883,718.967,166.6,716.533,166.55Zm0,5.324h-3.181l0-1.721c0-1.46.988-1.845,1.971-1.845h1.25a1.777,1.777,0,0,1,1.9,1.845l0,1.721Z" transform="translate(-69.145 -0.087)"/><path class="e" d="M763.9,168.256h5.436a.469.469,0,0,0,.426-.48v-.891a.434.434,0,0,0-.426-.441h-6.424c-2.045.005-2.257,1.784-2.257,3.264l0,1.838h0v.08h0l0,1.835c0,1.481.211,3.262,2.257,3.265h6.424a.434.434,0,0,0,.426-.441v-.944a.469.469,0,0,0-.426-.479H763.9c-1.421,0-1.253-1.038-1.253-1.038v-1.33h6.569a.44.44,0,0,0,.426-.441v-.886a.439.439,0,0,0-.426-.44h-6.569v-1.266S762.478,168.256,763.9,168.256Z" transform="translate(-96.844 -0.029)"/><path class="e" d="M600.146,166.74h-2.641a.681.681,0,0,0-.737.475l-2.469,7.226-2.47-7.226a.681.681,0,0,0-.738-.475h-2.638a.353.353,0,0,0-.339.366v9.5a.356.356,0,0,0,.354.365h1.281a.356.356,0,0,0,.354-.365v-7.031c-.008-.182.13-.252.209-.082l2.536,6.594a.609.609,0,0,0,.62.429h1.659a.609.609,0,0,0,.622-.429l2.537-6.594c.08-.17.218-.1.209.082V176.6a.356.356,0,0,0,.354.365h1.281a.356.356,0,0,0,.354-.365v-9.5A.353.353,0,0,0,600.146,166.74Z" transform="translate(0 -0.195)"/></g></g></svg>