<svg id="inventory_2_black_24dp" xmlns="http://www.w3.org/2000/svg" width="232" height="232" viewBox="0 0 232 232">
  <g id="Grupo_3281" data-name="Grupo 3281">
    <rect id="Ret창ngulo_2695" data-name="Ret창ngulo 2695" width="232" height="232" fill="none"/>
  </g>
  <g id="Grupo_3283" data-name="Grupo 3283" transform="translate(12.667 12.667)">
    <g id="Grupo_3282" data-name="Grupo 3282">
      <path id="Caminho_11570" data-name="Caminho 11570" d="M188,2H22.667C12.333,2,2,11.3,2,22.667v31.1c0,7.44,4.443,13.847,10.333,17.463V188c0,11.367,11.367,20.667,20.667,20.667H177.667c9.3,0,20.667-9.3,20.667-20.667V71.233c5.89-3.617,10.333-10.023,10.333-17.463v-31.1C208.667,11.3,198.333,2,188,2ZM177.667,188H33V74.333H177.667ZM188,53.667H22.667v-31H188Z" transform="translate(-2 -2)" fill="rgba(0,0,0,0.28)"/>
      <rect id="Ret창ngulo_2696" data-name="Ret창ngulo 2696" width="38" height="12.667" transform="translate(84.333 107.778)" fill="rgba(0,0,0,0.28)"/>
    </g>
  </g>
</svg>
