<svg id="inventory_2_black_24dp" xmlns="http://www.w3.org/2000/svg" width="36" height="36" viewBox="0 0 36 36">
  <g id="Grupo_3281" data-name="Grupo 3281">
    <rect id="Ret창ngulo_2695" data-name="Ret창ngulo 2695" width="36" height="36" fill="none"/>
  </g>
  <g id="Grupo_3283" data-name="Grupo 3283" transform="translate(2 2)">
    <g id="Grupo_3282" data-name="Grupo 3282">
      <path id="Caminho_11570" data-name="Caminho 11570" d="M30.8,2H5.2A3.318,3.318,0,0,0,2,5.2v4.816a3.232,3.232,0,0,0,1.6,2.7V30.8A3.438,3.438,0,0,0,6.8,34H29.2a3.438,3.438,0,0,0,3.2-3.2V12.72a3.232,3.232,0,0,0,1.6-2.7V5.2A3.318,3.318,0,0,0,30.8,2ZM29.2,30.8H6.8V13.2H29.2ZM30.8,10H5.2V5.2H30.8Z" transform="translate(-2 -2)" fill="#00b6de"/>
      <rect id="Ret창ngulo_2696" data-name="Ret창ngulo 2696" width="6" height="2" transform="translate(13 16.667)" fill="#00b6de"/>
    </g>
  </g>
</svg>
