<svg xmlns="http://www.w3.org/2000/svg" width="36" height="36" viewBox="0 0 36 36">
  <defs>
    <style>
      .cls-1 {
        fill: none;
      }

      .cls-2 {
        fill: #00b6de;
      }
    </style>
  </defs>
  <g id="timeline_black_24dp_1_" data-name="timeline_black_24dp (1)" transform="translate(-0.201 -0.2)">
    <g id="Grupo_3300" data-name="Grupo 3300">
      <rect id="Retângulo_2708" data-name="Retângulo 2708" class="cls-1" width="36" height="36" transform="translate(0.201 0.2)"/>
    </g>
    <g id="Grupo_3302" data-name="Grupo 3302" transform="translate(1.517 9.1)">
      <g id="Grupo_3301" data-name="Grupo 3301">
        <path id="Caminho_11582" data-name="Caminho 11582" class="cls-2" d="M34.367,9.033a3.042,3.042,0,0,1-3.033,3.033,2.578,2.578,0,0,1-.774-.106l-5.4,5.384a2.679,2.679,0,0,1,.106.789,3.033,3.033,0,1,1-6.067,0,2.679,2.679,0,0,1,.106-.789l-3.868-3.868a2.982,2.982,0,0,1-1.577,0l-6.9,6.916a2.578,2.578,0,0,1,.106.774,3.033,3.033,0,1,1-3.033-3.033,2.578,2.578,0,0,1,.774.106l6.916-6.9a2.679,2.679,0,0,1-.106-.789,3.033,3.033,0,1,1,6.067,0,2.679,2.679,0,0,1-.106.789l3.868,3.868a2.982,2.982,0,0,1,1.577,0l5.384-5.4a2.578,2.578,0,0,1-.106-.774,3.033,3.033,0,1,1,6.067,0Z" transform="translate(-1 -6)"/>
      </g>
    </g>
  </g>
</svg>
