<svg id="timeline_black_24dp_1_" data-name="timeline_black_24dp (1)" xmlns="http://www.w3.org/2000/svg" width="24" height="24" viewBox="0 0 24 24">
  <defs>
    <style>
      .cls-1 {
        fill: none;
      }

      .cls-2 {
        fill: #00b6de;
      }
    </style>
  </defs>
  <g id="Grupo_3300" data-name="Grupo 3300">
    <rect id="Retângulo_2708" data-name="Retângulo 2708" class="cls-1" width="24" height="24"/>
  </g>
  <g id="Grupo_3302" data-name="Grupo 3302">
    <g id="Grupo_3301" data-name="Grupo 3301">
      <path id="Caminho_11582" data-name="Caminho 11582" class="cls-2" d="M23,8a2.006,2.006,0,0,1-2,2,1.7,1.7,0,0,1-.51-.07l-3.56,3.55A1.766,1.766,0,0,1,17,14a2,2,0,0,1-4,0,1.766,1.766,0,0,1,.07-.52l-2.55-2.55a1.966,1.966,0,0,1-1.04,0L4.93,15.49A1.7,1.7,0,0,1,5,16a2,2,0,1,1-2-2,1.7,1.7,0,0,1,.51.07L8.07,9.52A1.766,1.766,0,0,1,8,9a2,2,0,0,1,4,0,1.766,1.766,0,0,1-.07.52l2.55,2.55a1.966,1.966,0,0,1,1.04,0l3.55-3.56A1.7,1.7,0,0,1,19,8a2,2,0,0,1,4,0Z"/>
    </g>
    <path id="Caminho_11583" data-name="Caminho 11583" class="cls-2" d="M4.147,13.635V11.147H6.635V9.488H4.147V7H2.488V9.488H0v1.659H2.488v2.488Z" transform="translate(16.365 8.365)"/>
  </g>
</svg>
