<svg id="collections_bookmark_black_24dp" xmlns="http://www.w3.org/2000/svg" width="36" height="36" viewBox="0 0 36 36">
  <path id="Caminho_11656" data-name="Caminho 11656" d="M0,0H36V36H0Z" fill="none"/>
  <path id="Caminho_11657" data-name="Caminho 11657" d="M5.007,8.013H2V29.059a3.015,3.015,0,0,0,3.007,3.007H26.052V29.059H5.007ZM29.059,2H11.02A3.015,3.015,0,0,0,8.013,5.007V23.046a3.015,3.015,0,0,0,3.007,3.007H29.059a3.015,3.015,0,0,0,3.007-3.007V5.007A3.015,3.015,0,0,0,29.059,2Zm-4.51,3.007v7.516l-1.5-1.127-1.5,1.127V5.007Zm4.51,18.039H11.02V5.007h7.516V18.536l4.51-3.382,4.51,3.382V5.007h1.5Z" transform="translate(0.967 0.967)" fill="#00b6de"/>
</svg>
