<svg id="collections_bookmark_black_24dp" xmlns="http://www.w3.org/2000/svg" width="24" height="24" viewBox="0 0 24 24">
  <path id="Caminho_11656" data-name="Caminho 11656" d="M0,0H24V24H0Z" fill="none"/>
  <path id="Caminho_11657" data-name="Caminho 11657" d="M4,6.01H2V20.045a2.011,2.011,0,0,0,2,2H18.04v-2H4ZM20.045,2H8.015a2.011,2.011,0,0,0-2,2v12.03a2.011,2.011,0,0,0,2,2h12.03a2.011,2.011,0,0,0,2-2V4A2.011,2.011,0,0,0,20.045,2ZM17.037,4V9.017l-1-.752-1,.752V4Zm3.007,12.03H8.015V4h5.012v9.022l3.007-2.256,3.007,2.256V4h1Z" transform="translate(-0.025 -0.025)" fill="#00b6de"/>
</svg>
