<svg xmlns="http://www.w3.org/2000/svg" width="36" height="36" viewBox="0 0 36 36"><defs><style>.a{fill:none;}.b{fill:#00b6de;}</style></defs><path class="a" d="M0,0H36V36H0Z"/><path class="b" d="M15.731,5.731a.8.8,0,0,1,.808.808V9.769h9.692v9.692h3.231a.808.808,0,1,1,0,1.615H26.231v9.692H22.806a7.588,7.588,0,0,0-14.151,0H5.231V27.345a7.593,7.593,0,0,0,.016-14.151L5.231,9.769h9.692V6.538a.8.8,0,0,1,.808-.808m0-3.231a4.04,4.04,0,0,0-4.038,4.038H5.231A3.226,3.226,0,0,0,2.016,9.769v6.138h.468a4.362,4.362,0,1,1,0,8.723H2v6.138A3.24,3.24,0,0,0,5.231,34h6.138v-.485a4.362,4.362,0,1,1,8.723,0V34h6.138a3.24,3.24,0,0,0,3.231-3.231V24.308a4.038,4.038,0,1,0,0-8.077V9.769a3.24,3.24,0,0,0-3.231-3.231H19.769A4.04,4.04,0,0,0,15.731,2.5Z" transform="translate(0)"/></svg>