<svg xmlns="http://www.w3.org/2000/svg" width="24" height="24" viewBox="0 0 24 24"><defs><style>.a{fill:none;}.b{fill:#00b6de;}</style></defs><path class="a" d="M0,0H24V24H0Z"/><path class="b" d="M17503.8-3903.5h-3.8a2,2,0,0,1-2-2v-3.8h.3a2.7,2.7,0,0,0,2.7-2.7,2.7,2.7,0,0,0-2.7-2.7h-.295v-3.8a2,2,0,0,1,1.992-2h4a2.5,2.5,0,0,1,2.5-2.5,2.5,2.5,0,0,1,2.5,2.5h4a2,2,0,0,1,2,2v4a2.5,2.5,0,0,1,2.5,2.5,2.5,2.5,0,0,1-2.5,2.5v.5h-2v-2.5h2a.493.493,0,0,0,.5-.5.491.491,0,0,0-.5-.5h-2v-6h-6v-2a.5.5,0,0,0-.5-.5.493.493,0,0,0-.5.5v2h-6l.008,2.119A4.731,4.731,0,0,1,17503-3912a4.736,4.736,0,0,1-3,4.384v2.119h2.119a4.735,4.735,0,0,1,4.379-3,4.738,4.738,0,0,1,4.383,3h.621v2h-2.3v-.3a2.7,2.7,0,0,0-2.7-2.7,2.7,2.7,0,0,0-2.7,2.7v.3Z" transform="translate(-17496 3925.5)"/><path class="b" d="M4.147,13.635V11.147H6.635V9.488H4.147V7H2.488V9.488H0v1.659H2.488v2.488Z" transform="translate(16.365 10.365)"/></svg>