<svg xmlns="http://www.w3.org/2000/svg" width="1349.455" height="286.131" viewBox="0 0 1349.455 286.131"><defs><style>.a{fill:#00b6de;}.b{fill:#80c342;}.c{fill:#f3672a;}.d{fill:#4d216c;}</style></defs><g transform="translate(23690.999 -8591.934)"><rect class="a" width="335.159" height="52.92" transform="translate(-23691 8591.934)"/><rect class="b" width="343.979" height="52.92" transform="translate(-23355.842 8591.934)"/><rect class="c" width="326.339" height="52.92" transform="translate(-23011.863 8591.934)"/><rect class="d" width="343.979" height="52.92" transform="translate(-22685.523 8591.934)"/><path d="M748.66,166.74H732.77a6.259,6.259,0,0,0-6.347,6.157v78.058c0,22.964-14.551,30.442-36.116,30.442h-5.741c-21.277,0-36.073-7.777-36.073-30.442V172.9a6.252,6.252,0,0,0-6.316-6.157H626.215a6.286,6.286,0,0,0-6.542,6.157v78.749c0,37.039,22.053,56.61,63.776,56.61h7.936c41.747,0,63.813-19.571,63.813-56.61V172.9A6.28,6.28,0,0,0,748.66,166.74Z" transform="translate(-24100.09 8568.446)"/><path d="M793.545,166.737H662.753a6.119,6.119,0,0,0-6.285,6.242v13.17a6.111,6.111,0,0,0,6.285,6.206h51.6V303.19a6.176,6.176,0,0,0,6.328,6h15.688a6.193,6.193,0,0,0,6.347-6V192.355h50.826a6.139,6.139,0,0,0,6.34-6.206v-13.17A6.147,6.147,0,0,0,793.545,166.737Z" transform="translate(-23911.914 8568.431)"/><path d="M704.9,166.392H689.745a6.255,6.255,0,0,0-6.334,6.3V304.514a6.21,6.21,0,0,0,6.334,6.077H704.9a6.5,6.5,0,0,0,6.573-6.291V172.689A6.376,6.376,0,0,0,704.9,166.392Z" transform="translate(-23774.133 8566.667)"/><path d="M805.036,225.235c-21.913-4.952-36.984-5.986-36.984-19.223,0-7.569.257-16.055,20.757-16.055h28.8c14.815,0,22.83,5.876,22.9,13.359.08,6.053,5.374,6.744,9.929,6.744h11.317c3.3,0,6.45-1.981,6.45-9.948,0-14.735-12.46-25.4-27.708-30.442a65.372,65.372,0,0,0-20.066-3.228H796.116c-50.863,0-57.386,21.827-57.386,40.829,0,30.833,33.78,35.29,62.437,41.826,21.992,5.013,39.337,8.969,39.337,22.218,0,5.967-2.623,13.61-20.219,13.61H786.761c-20.048,0-23.551-1.486-24.511-10.712-.617-5.98-4.28-7.893-8.786-7.893h-11.4c-.074,0-6.4.11-6.4,8.058,0,20.947,18.012,35.547,40.609,35.547h36.183c50.887,0,57.392-21.809,57.392-40.787C869.851,238.008,833.778,231.716,805.036,225.235Z" transform="translate(-23506.895 8566.928)"/><path d="M887.238,191.9h-1.076l-.019.018H844.428c-21.277,0-32.086,7.936-32.086,31.01v81.353a6.3,6.3,0,0,1-6.328,6.261H791.475a6.338,6.338,0,0,1-6.542-6.261V224.032c0-37.724,16.648-57.631,58.389-57.631h43.9l.019.018h0a5.518,5.518,0,0,1,5.508,5.545v14.209A5.561,5.561,0,0,1,887.238,191.9Z" transform="translate(-23254.947 8566.713)"/><path d="M741.379,284.621H695.67c-21.809,0-22.555-6.145-22.555-30.857V172.917a6.285,6.285,0,0,0-6.328-6.249H651.882a6.32,6.32,0,0,0-6.523,6.249V274c0,23.649,13.811,35.981,46.729,35.981h49.279a5.511,5.511,0,0,0,5.509-5.515l.013-14.124A5.567,5.567,0,0,0,741.379,284.621Z" transform="translate(-23968.73 8568.083)"/><path d="M787.374,285.188h-1.107v-.012H741.684c-21.839,0-22.573-6.175-22.573-31.059V172.683a6.313,6.313,0,0,0-6.309-6.292H697.9a6.36,6.36,0,0,0-6.542,6.292V274.494c0,23.814,13.812,36.244,46.729,36.244h49.28l.012-.025h0a5.511,5.511,0,0,0,5.509-5.533v-14.24A5.59,5.59,0,0,0,787.374,285.188Z" transform="translate(-23733.512 8566.667)"/><path d="M784.229,166.6v-.049H768.014v.049c-33.914.679-56.7,20.1-56.7,48.02l-.018,89.357c0,5.986,3.461,5.986,4.585,5.986H732.9c4.885,0,6.383-1.443,6.383-6.206V266.689H812.09v37.063c0,4.763,1.5,6.206,6.389,6.206h17.163c1.137,0,4.566,0,4.566-5.986V214.615C840.208,185.164,818.161,167.293,784.229,166.6Zm0,74.206H739.9l.043-23.979c0-20.347,13.768-25.709,27.47-25.709h17.425c13.7,0,26.542,8.315,26.542,25.709l.042,23.979Z" transform="translate(-23631.502 8567.459)"/><path d="M805.948,191.706h75.759c3.284,0,5.937-3.289,5.937-6.695V172.588a6.044,6.044,0,0,0-5.937-6.145H792.173c-28.5.073-31.45,24.866-31.45,45.488l-.062,25.618h-.013v1.119h.013l.062,25.575c0,20.635,2.934,45.458,31.45,45.507h89.533a6.046,6.046,0,0,0,5.937-6.151V290.448c0-3.381-2.653-6.671-5.937-6.671H805.948c-19.8,0-17.461-14.466-17.461-14.466V250.78h91.551a6.128,6.128,0,0,0,5.936-6.145V232.291a6.115,6.115,0,0,0-5.936-6.139H788.487V208.514S786.145,191.706,805.948,191.706Z" transform="translate(-23379.131 8566.928)"/><path d="M755.81,166.74h-36.8c-5.466,0-8.823,2.152-10.278,6.621l-34.416,100.71-34.422-100.71c-1.455-4.469-4.812-6.621-10.29-6.621h-36.77a4.92,4.92,0,0,0-4.72,5.1V304.214a4.965,4.965,0,0,0,4.928,5.087h17.847a4.955,4.955,0,0,0,4.935-5.087l.012-97.99c-.116-2.531,1.81-3.51,2.916-1.137l35.345,91.9c1.547,4.029,4.384,5.979,8.639,5.979h23.123c4.3,0,7.123-1.95,8.67-5.979l35.357-91.9c1.113-2.372,3.039-1.394,2.916,1.137v97.99a4.967,4.967,0,0,0,4.935,5.087h17.847a4.966,4.966,0,0,0,4.928-5.087V171.839A4.918,4.918,0,0,0,755.81,166.74Z" transform="translate(-24261.477 8568.446)"/></g></svg>