<svg id="assignment_black_24dp" xmlns="http://www.w3.org/2000/svg" width="36" height="36" viewBox="0 0 36 36">
  <defs>
    <style>
      .cls-1 {
        fill: none;
      }

      .cls-2 {
        fill: #00b6de;
      }
    </style>
  </defs>
  <path id="Caminho_11575" data-name="Caminho 11575" class="cls-1" d="M0,0H36V36H0Z"/>
  <path id="Caminho_11576" data-name="Caminho 11576" class="cls-2" d="M9.018,22.038H19.549v3.005H9.018Zm0-6.011H24.063v3.005H9.018Zm0-6.011H24.063v3.005H9.018ZM27.072,4.005H20.783a4.5,4.5,0,0,0-8.485,0H6.009a2.639,2.639,0,0,0-.6.06A3.039,3.039,0,0,0,3.241,5.854,2.892,2.892,0,0,0,3,7.011V28.048a3.08,3.08,0,0,0,.241,1.172,3.185,3.185,0,0,0,.647.962,3.022,3.022,0,0,0,1.52.826,3.909,3.909,0,0,0,.6.045H27.072a3.016,3.016,0,0,0,3.009-3.005V7.011A3.016,3.016,0,0,0,27.072,4.005ZM16.54,3.63a1.127,1.127,0,1,1-1.128,1.127A1.136,1.136,0,0,1,16.54,3.63ZM27.072,28.048H6.009V7.011H27.072Z" transform="translate(1.46 0.487)"/>
</svg>
