<svg xmlns="http://www.w3.org/2000/svg" width="120" height="120" viewBox="0 0 120 120">
  <defs>
    <style>
      .cls-1 {
        fill: #00b6de;
      }

      .cls-2 {
        fill: none;
      }

      .cls-3 {
        fill: #fff;
      }
    </style>
  </defs>
  <g id="Grupo_3433" data-name="Grupo 3433" transform="translate(21665 19362)">
    <rect id="Ret창ngulo_2763" data-name="Ret창ngulo 2763" class="cls-1" width="120" height="120" transform="translate(-21665 -19362)"/>
    <g id="qr_code_scanner_black_24dp" transform="translate(-21649.686 -19346.686)">
      <rect id="Ret창ngulo_2761" data-name="Ret창ngulo 2761" class="cls-2" width="90" height="90" transform="translate(-0.314 -0.314)"/>
      <path id="Caminho_11614" data-name="Caminho 11614" class="cls-3" d="M29.928,18.757V29.928H18.757V18.757H29.928m5.586-5.586H13.171V35.514H35.514V13.171ZM29.928,48.547V59.719H18.757V48.547H29.928m5.586-5.586H13.171V65.3H35.514V42.962Zm24.2-24.2V29.928H48.547V18.757H59.719M65.3,13.171H42.962V35.514H65.3V13.171ZM42.962,42.962h5.586v5.586H42.962Zm5.586,5.586h5.586v5.586H48.547Zm5.586-5.586h5.586v5.586H54.133ZM42.962,54.133h5.586v5.586H42.962Zm5.586,5.586h5.586V65.3H48.547Zm5.586-5.586h5.586v5.586H54.133Zm5.586-5.586H65.3v5.586H59.719Zm0,11.171H65.3V65.3H59.719Zm16.757-39.1H69.028V9.448H57.857V2H76.476Zm0,55.857V57.857H69.028V69.028H57.857v7.448ZM2,76.476H20.619V69.028H9.448V57.857H2ZM2,2V20.619H9.448V9.448H20.619V2Z" transform="translate(5.448 5.448)"/>
    </g>
  </g>
</svg>
