<svg id="rasp_disponivel" xmlns="http://www.w3.org/2000/svg" width="36" height="36" viewBox="0 0 36 36">
  <defs>
    <style>
      .cls-1 {
        fill: none;
      }

      .cls-2 {
        fill: #00b6de;
      }
    </style>
  </defs>
  <rect id="Retângulo_2799" data-name="Retângulo 2799" class="cls-1" width="36" height="36"/>
  <path id="Subtração_6" data-name="Subtração 6" class="cls-2" d="M-5870.7,106H-5884a3,3,0,0,1-3-3V82a3,3,0,0,1,3-3h21a3,3,0,0,1,3,3V95.3a7.928,7.928,0,0,0-3-.789V85h-21v18h12.515a7.92,7.92,0,0,0,.789,3Zm-1.3-7.5h-9v-3h9Zm6-6h-15v-3h15Z" transform="translate(5891.5 -74.5)"/>
  <g id="Grupo_3540" data-name="Grupo 3540" transform="translate(22 22)">
    <g id="Grupo_3541" data-name="Grupo 3541">
      <path id="Caminho_11665" data-name="Caminho 11665" class="cls-2" d="M8,2a6,6,0,1,0,6,6A6,6,0,0,0,8,2ZM8,12.8A4.8,4.8,0,1,1,12.8,8,4.8,4.8,0,0,1,8,12.8ZM9.8,8A1.8,1.8,0,1,1,8,6.2,1.8,1.8,0,0,1,9.8,8Z" transform="translate(-2 -2)"/>
    </g>
  </g>
</svg>
