<svg id="rasp_overview" xmlns="http://www.w3.org/2000/svg" width="36" height="36" viewBox="0 0 36 36">
  <defs>
    <style>
      .cls-1 {
        fill: none;
      }

      .cls-2 {
        fill: #00b6de;
      }
    </style>
  </defs>
  <rect id="Retângulo_2799" data-name="Retângulo 2799" class="cls-1" width="36" height="36"/>
  <path id="Subtração_4" data-name="Subtração 4" class="cls-2" d="M-5800.7,106H-5814a3,3,0,0,1-3-3V82a3,3,0,0,1,3-3h21a3,3,0,0,1,3,3V95.305a7.927,7.927,0,0,0-3-.789V85h-21v18h12.515a7.929,7.929,0,0,0,.79,3Zm-1.3-7.5h-9v-3h9Zm6-6h-15v-3h15Z" transform="translate(5821.5 -74.5)"/>
  <path id="Caminho_11667" data-name="Caminho 11667" class="cls-2" d="M8,5.333H9.333V6.667H8ZM8,8H9.333v4H8Zm.667-6a6.667,6.667,0,1,0,6.667,6.667A6.667,6.667,0,0,0,8.667,2Zm0,12A5.333,5.333,0,1,1,14,8.667,5.333,5.333,0,0,1,8.667,14Z" transform="translate(19.333 19.333)"/>
</svg>
