<svg id="rasp_configurado" xmlns="http://www.w3.org/2000/svg" width="36" height="36" viewBox="0 0 36 36">
  <defs>
    <style>
      .cls-1 {
        fill: none;
      }

      .cls-2 {
        fill: #00b6de;
      }
    </style>
  </defs>
  <rect id="Retângulo_2799" data-name="Retângulo 2799" class="cls-1" width="36" height="36"/>
  <path id="Subtração_5" data-name="Subtração 5" class="cls-2" d="M-5736.7,106H-5750a3,3,0,0,1-3-3V82a3,3,0,0,1,3-3h21a3,3,0,0,1,3,3V95.3a7.926,7.926,0,0,0-3-.789V85h-21v18h12.516a7.929,7.929,0,0,0,.789,3Zm-1.3-7.5h-9v-3h9Zm6-6h-15v-3h15Z" transform="translate(5757.5 -74.5)"/>
  <path id="Caminho_11668" data-name="Caminho 11668" class="cls-2" d="M14,3.908,7.154,10.76,4.61,8.216l.846-.846,1.7,1.7,6-6ZM12.674,6.932A4.805,4.805,0,1,1,10.568,3.95l.864-.864A5.94,5.94,0,0,0,8,2a6.016,6.016,0,1,0,5.64,3.966Z" transform="translate(20 20)"/>
</svg>
