<svg id="alt_route_black_24dp" xmlns="http://www.w3.org/2000/svg" width="24" height="24" viewBox="0 0 24 24">
  <defs>
    <style>
      .cls-1 {
        fill: none;
      }

      .cls-2 {
        fill: #00b6de;
      }
    </style>
  </defs>
  <rect id="Retângulo_2709" data-name="Retângulo 2709" class="cls-1" width="24" height="24"/>
  <path id="Caminho_11584" data-name="Caminho 11584" class="cls-2" d="M9.78,11.16,8.36,12.58A7.282,7.282,0,0,1,6.57,9.64l1.94-.49A5.346,5.346,0,0,0,9.78,11.16ZM11,6,7,2,3,6H6.02a14.98,14.98,0,0,0,.19,2.17l1.94-.49A13.215,13.215,0,0,1,8.02,6ZM21,6,17,2,13,6h2.99c-.1,3.68-1.28,4.75-2.54,5.88A8.672,8.672,0,0,0,12,13.43a7.132,7.132,0,0,0-1.13-1.24L9.46,13.6A3.874,3.874,0,0,1,11,17h0v5h2V17h0a4.055,4.055,0,0,1,1.79-3.63c1.38-1.24,3.08-2.78,3.2-7.37Z"/>
  <path id="Caminho_11585" data-name="Caminho 11585" class="cls-2" d="M4.147,13.635V11.147H6.635V9.488H4.147V7H2.488V9.488H0v1.659H2.488v2.488Z" transform="translate(14.365 8.365)"/>
</svg>
