<svg xmlns="http://www.w3.org/2000/svg" width="36" height="36" viewBox="0 0 36 36">
  <defs>
    <style>
      .cls-1 {
        fill: none;
      }

      .cls-2 {
        fill: #00b6de;
      }
    </style>
  </defs>
  <g id="alt_route_black_24dp" transform="translate(0 0)">
    <rect id="Retângulo_2709" data-name="Retângulo 2709" class="cls-1" width="36" height="36" transform="translate(0 0)"/>
    <path id="Caminho_11584" data-name="Caminho 11584" class="cls-2" d="M13.17,15.74l-2.13,2.13a10.922,10.922,0,0,1-2.685-4.41l2.91-.735A8.019,8.019,0,0,0,13.17,15.74ZM15,8,9,2,3,8H7.53a22.469,22.469,0,0,0,.285,3.255l2.91-.735A19.822,19.822,0,0,1,10.53,8ZM30,8,24,2,18,8h4.485c-.15,5.52-1.92,7.125-3.81,8.82A13.007,13.007,0,0,0,16.5,19.145a10.7,10.7,0,0,0-1.695-1.86L12.69,19.4A5.811,5.811,0,0,1,15,24.5h0V32h3V24.5h0c0-3.03,1.065-3.99,2.685-5.445,2.07-1.86,4.62-4.17,4.8-11.055Z" transform="translate(1.5 1)"/>
  </g>
</svg>
