<svg xmlns="http://www.w3.org/2000/svg" width="19.317" height="18.635" viewBox="0 0 19.317 18.635">
  <defs>
    <style>
      .cls-1 {
        fill: #00b6de;
      }

    </style>
  </defs>
  <g id="Grupo_3280" data-name="Grupo 3280" transform="translate(-3 -2.365)">
    <path id="Caminho_11562" data-name="Caminho 11562" class="cls-1" d="M19.93,8.35l-3.6,1.68L14,7.7V6.3l2.33-2.33,3.6,1.68a.752.752,0,1,0,.64-1.36L16.65,2.46a.993.993,0,0,0-1.13.2L13.78,4.4A.975.975,0,0,0,13,4a1,1,0,0,0-1,1V6H8.82A3,3,0,1,0,4.48,9.58L7.08,18H6a2.006,2.006,0,0,0-2,2v1H17V20a2.006,2.006,0,0,0-2-2H13.38L8.41,8.77A3.163,3.163,0,0,0,8.82,8H12V9a1,1,0,0,0,1,1,.975.975,0,0,0,.78-.4l1.74,1.74a.993.993,0,0,0,1.13.2l3.92-1.83a.745.745,0,0,0,.36-1A.753.753,0,0,0,19.93,8.35ZM6,8A1,1,0,1,1,7,7,1,1,0,0,1,6,8Zm5.11,10H9.17L6.71,10h.1Z"/>
    <path id="Caminho_11563" data-name="Caminho 11563" class="cls-1" d="M4.147,13.635V11.147H6.635V9.488H4.147V7H2.488V9.488H0v1.659H2.488v2.488Z" transform="translate(15.683 5.683)"/>
  </g>
</svg>
