<svg id="precision_manufacturing_black_24dp" xmlns="http://www.w3.org/2000/svg" width="24" height="24" viewBox="0 0 24 24">
  <defs>
    <style>
      .cls-1 {
        fill: none;
      }

      .cls-2 {
        fill: rgba(0,0,0,0.54);
      }
    </style>
  </defs>
  <g id="Grupo_3241" data-name="Grupo 3241">
    <rect id="Retângulo_2686" data-name="Retângulo 2686" class="cls-1" width="24" height="24"/>
  </g>
  <g id="Grupo_3242" data-name="Grupo 3242">
    <path id="Caminho_11564" data-name="Caminho 11564" class="cls-2" d="M19.93,8.35l-3.6,1.68L14,7.7V6.3l2.33-2.33,3.6,1.68a.752.752,0,1,0,.64-1.36L16.65,2.46a.993.993,0,0,0-1.13.2L13.78,4.4A.975.975,0,0,0,13,4a1,1,0,0,0-1,1V6H8.82A3,3,0,1,0,4.48,9.58L7.08,18H6a2.006,2.006,0,0,0-2,2v1H17V20a2.006,2.006,0,0,0-2-2H13.38L8.41,8.77A3.163,3.163,0,0,0,8.82,8H12V9a1,1,0,0,0,1,1,.975.975,0,0,0,.78-.4l1.74,1.74a.993.993,0,0,0,1.13.2l3.92-1.83a.745.745,0,0,0,.36-1A.753.753,0,0,0,19.93,8.35ZM6,8A1,1,0,1,1,7,7,1,1,0,0,1,6,8Zm5.11,10H9.17L6.71,10h.1Z"/>
  </g>
</svg>
