<svg id="construction_black_24dp" xmlns="http://www.w3.org/2000/svg" width="24" height="24" viewBox="0 0 24 24">
  <defs>
    <style>
      .cls-1 {
        fill: none;
      }

      .cls-2 {
        fill: rgba(0,0,0,0.54);
      }
    </style>
  </defs>
  <g id="Grupo_3236" data-name="Grupo 3236">
    <rect id="Ret창ngulo_2683" data-name="Ret창ngulo 2683" class="cls-1" width="24" height="24"/>
  </g>
  <g id="Grupo_3238" data-name="Grupo 3238">
    <g id="Grupo_3237" data-name="Grupo 3237">
      <rect id="Ret창ngulo_2684" data-name="Ret창ngulo 2684" class="cls-2" width="3" height="8.48" transform="translate(13.783 15.172) rotate(-45)"/>
      <path id="Caminho_11561" data-name="Caminho 11561" class="cls-2" d="M17.5,10A3.5,3.5,0,0,0,21,6.5a3.455,3.455,0,0,0-.41-1.6l-2.7,2.7L16.4,6.11l2.7-2.7A3.455,3.455,0,0,0,17.5,3,3.5,3.5,0,0,0,14,6.5a3.41,3.41,0,0,0,.21,1.16L12.36,9.51,10.58,7.73l.71-.71L9.88,5.61,12,3.49a3,3,0,0,0-4.24,0L4.22,7.03,5.63,8.44H2.81l-.71.71,3.54,3.54.71-.71V9.15l1.41,1.41.71-.71,1.78,1.78L2.84,19.04l2.12,2.12L16.34,9.79A3.41,3.41,0,0,0,17.5,10Z"/>
    </g>
  </g>
</svg>
