<svg xmlns="http://www.w3.org/2000/svg" width="36" height="36" viewBox="0 0 36 36"><rect width="36" height="36" fill="none"/><g transform="translate(4.5 3.547)"><path d="M28.4,11.343l-5.4,2.52-3.495-3.5v-2.1l3.495-3.5,5.4,2.52a1.127,1.127,0,0,0,.96-2.04l-5.88-2.745a1.49,1.49,0,0,0-1.695.3l-2.61,2.61a1.463,1.463,0,0,0-1.17-.6,1.5,1.5,0,0,0-1.5,1.5v1.5H11.73a4.493,4.493,0,1,0-6.51,5.37l3.9,12.63H7.5a3.009,3.009,0,0,0-3,3v1.5H24v-1.5a3.009,3.009,0,0,0-3-3H18.57L11.115,11.973a4.744,4.744,0,0,0,.615-1.155H16.5v1.5a1.5,1.5,0,0,0,1.5,1.5,1.463,1.463,0,0,0,1.17-.6l2.61,2.61a1.49,1.49,0,0,0,1.695.3l5.88-2.745a1.117,1.117,0,0,0,.54-1.5A1.13,1.13,0,0,0,28.4,11.343ZM7.5,10.818A1.5,1.5,0,1,1,9,9.318,1.5,1.5,0,0,1,7.5,10.818Zm7.665,15h-2.91l-3.69-12h.15Z" transform="translate(-3 -2.365)" fill="#00b6de"/></g></svg>