<svg xmlns="http://www.w3.org/2000/svg" width="36" height="36" viewBox="0 0 36 36"><path d="M0,0H36V36H0Z" fill="none"/><path d="M12.5,18.123C8.99,18.123,2,19.878,2,23.373V26H23V23.373C23,19.878,16.009,18.123,12.5,18.123ZM5.51,23a14.463,14.463,0,0,1,6.99-1.875A14.463,14.463,0,0,1,19.489,23Zm6.99-7.5a5.249,5.249,0,1,0-5.25-5.249A5.255,5.255,0,0,0,12.5,15.5Zm0-7.5a2.25,2.25,0,1,1-2.25,2.25A2.247,2.247,0,0,1,12.5,8Zm10.56,10.214A6.288,6.288,0,0,1,26,23.373V26h6V23.373C32,20.343,26.749,18.618,23.059,18.213ZM21.5,15.5A5.249,5.249,0,1,0,21.5,5a5.169,5.169,0,0,0-2.25.525,8.19,8.19,0,0,1,0,9.449A5.168,5.168,0,0,0,21.5,15.5Z" transform="translate(1.001 2.501)" fill="#00b6de"/></svg>